<?xml version="1.0" encoding="UTF-8" standalone="no" ?>
<!DOCTYPE svg PUBLIC "-//W3C//DTD SVG 1.1//EN" "http://www.w3.org/Graphics/SVG/1.1/DTD/svg11.dtd">
<svg xmlns="http://www.w3.org/2000/svg" xmlns:xlink="http://www.w3.org/1999/xlink" version="1.1" width="1080" height="1080" viewBox="0 0 1080 1080" xml:space="preserve">
<desc>Created with Fabric.js 5.2.4</desc>
<defs>
</defs>
<rect x="0" y="0" width="100%" height="100%" fill="transparent"></rect>
<g transform="matrix(1 0 0 1 540 540)" id="ac67df18-e801-4243-bfbf-27d5348f06b0"  >
<rect style="stroke: none; stroke-width: 1; stroke-dasharray: none; stroke-linecap: butt; stroke-dashoffset: 0; stroke-linejoin: miter; stroke-miterlimit: 4; fill: rgb(255,255,255); fill-rule: nonzero; opacity: 1; visibility: hidden;" vector-effect="non-scaling-stroke"  x="-540" y="-540" rx="0" ry="0" width="1080" height="1080" />
</g>
<g transform="matrix(1 0 0 1 540 540)" id="877c8958-5fbc-4bf4-8517-fb7f578042e6"  >
</g>
<g transform="matrix(1 0 0 1 98.53 63.39)"  >
<path style="stroke: none; stroke-width: 1; stroke-dasharray: none; stroke-linecap: butt; stroke-dashoffset: 0; stroke-linejoin: round; stroke-miterlimit: 2; fill: rgb(0,0,0); fill-opacity: 0.25; fill-rule: evenodd; opacity: 1;" vector-effect="non-scaling-stroke"  transform=" translate(-84.5, -44.46)" d="M 17.576 72.414 C 23.291 40.646 51.1 16.507 84.5 16.507 C 117.9 16.507 145.728 40.647000000000006 151.423 72.414 C 139.04 52.896 113.71600000000001 39.505 84.5 39.505 C 55.283 39.505 29.96 52.895 17.576999999999998 72.414 Z" stroke-linecap="round" />
</g>
<g transform="matrix(1 0 0 1 98.53 103.44)"  >
<path style="stroke: none; stroke-width: 1; stroke-dasharray: none; stroke-linecap: butt; stroke-dashoffset: 0; stroke-linejoin: round; stroke-miterlimit: 2; fill: rgb(0,0,0); fill-rule: evenodd; opacity: 1;" vector-effect="non-scaling-stroke"  transform=" translate(-84.5, -84.51)" d="M 84.503 0.006 C 37.868 0.006 -0.002 37.877 -0.002 84.512 C -0.002 131.147 37.867999999999995 169.018 84.503 169.018 C 131.138 169.018 169.00900000000001 131.147 169.00900000000001 84.512 C 169.00900000000001 37.87700000000001 131.138 0.006 84.503 0.006 Z M 84.503 7.018 C 127.273 7.018 161.998 41.741 161.998 84.512 C 161.998 127.28200000000001 127.274 162.007 84.50299999999999 162.007 C 41.73299999999998 162.007 7.008999999999986 127.28300000000002 7.008999999999986 84.512 C 7.008999999999986 41.742 41.73299999999998 7.018000000000001 84.50299999999999 7.018000000000001 Z" stroke-linecap="round" />
</g>
<g transform="matrix(1 0 0 1 98.52 178.44)"  >
<path style="stroke: none; stroke-width: 1; stroke-dasharray: none; stroke-linecap: butt; stroke-dashoffset: 0; stroke-linejoin: round; stroke-miterlimit: 2; fill: rgb(0,0,0); fill-rule: evenodd; opacity: 1;" vector-effect="non-scaling-stroke"  transform=" translate(-84.5, -159.51)" d="M 84.496 159.508 Z" stroke-linecap="round" />
</g>
<g transform="matrix(1 0 0 1 23.53 103.44)"  >
<path style="stroke: none; stroke-width: 1; stroke-dasharray: none; stroke-linecap: butt; stroke-dashoffset: 0; stroke-linejoin: round; stroke-miterlimit: 2; fill: rgb(0,0,0); fill-rule: evenodd; opacity: 1;" vector-effect="non-scaling-stroke"  transform=" translate(-9.5, -84.51)" d="M 9.497 84.508 Z" stroke-linecap="round" />
</g>
<g transform="matrix(1 0 0 1 98.53 163.44)"  >
<path style="stroke: none; stroke-width: 1; stroke-dasharray: none; stroke-linecap: butt; stroke-dashoffset: 0; stroke-linejoin: round; stroke-miterlimit: 2; fill: rgb(0,0,0); fill-rule: evenodd; opacity: 1;" vector-effect="non-scaling-stroke"  transform=" translate(-84.5, -144.51)" d="M 43.79 138.96 C 55.407 137.40200000000002 69.425 136.506 84.499 136.506 C 99.573 136.506 113.591 137.402 125.207 138.959 C 113.46697189421826 147.7711012829525 99.17926989858888 152.5255958719125 84.5 152.505 C 69.81981837912679 152.52653544898465 55.53097399935289 147.77236209786605 43.790000000000006 138.96 Z" stroke-linecap="round" />
</g>
<g transform="matrix(1 0 0 1 98.53 138.65)"  >
<path style="stroke: none; stroke-width: 1; stroke-dasharray: none; stroke-linecap: butt; stroke-dashoffset: 0; stroke-linejoin: round; stroke-miterlimit: 2; fill: rgb(0,0,0); fill-rule: evenodd; opacity: 1;" vector-effect="non-scaling-stroke"  transform=" translate(-84.5, -119.72)" d="M 25.797 118.814 C 26.30330415953838 118.51443587205137 26.81402708562656 118.22240370282601 27.32900000000004 117.93799999999996 C 40.229 110.90699999999998 61.059 106.50599999999999 84.499 106.50599999999999 C 107.939 106.50599999999999 128.789 110.90599999999999 141.66899999999998 117.93799999999999 C 142.207 118.22599999999998 142.70399999999998 118.51799999999999 143.201 118.814 C 140.18059157990461 123.98387988576688 136.4906948475307 128.7322598433561 132.227 132.93599999999998 C 119.244 130.79299999999998 102.617 129.50699999999998 84.499 129.50699999999998 C 66.381 129.50699999999998 49.754 130.79299999999998 36.791999999999994 132.93599999999998 C 32.515635903174406 128.73826242947482 28.818057190181392 123.98908493198618 25.79699999999999 118.81399999999996 Z" stroke-linecap="round" />
</g>
<g transform="matrix(1 0 0 1 98.53 113.48)"  >
<path style="stroke: none; stroke-width: 1; stroke-dasharray: none; stroke-linecap: butt; stroke-dashoffset: 0; stroke-linejoin: round; stroke-miterlimit: 2; fill: rgb(0,0,0); fill-opacity: 0.75; fill-rule: evenodd; opacity: 1;" vector-effect="non-scaling-stroke"  transform=" translate(-84.5, -94.55)" d="M 19.316 103.904 C 21.386 100.084 24.512999999999998 96.544 28.406 93.354 C 41.057 83.014 61.515 76.505 84.499 76.505 C 107.48299999999999 76.505 127.941 83.01299999999999 140.59199999999998 93.354 C 144.48499999999999 96.544 147.612 100.084 149.682 103.904 C 148.80345562262394 106.87253398384732 147.71744891315956 109.77568053517851 146.432 112.592 C 132.93099999999998 104.692 110.21599999999998 99.506 84.499 99.506 C 58.78200000000001 99.506 36.087999999999994 104.693 22.566999999999993 112.592 C 21.281544968497897 109.77556841453324 20.195212801456712 106.87244510870312 19.31599999999998 103.904 Z" stroke-linecap="round" />
</g>
<g transform="matrix(1 0 0 1 98.53 89.47)"  >
<path style="stroke: none; stroke-width: 1; stroke-dasharray: none; stroke-linecap: butt; stroke-dashoffset: 0; stroke-linejoin: round; stroke-miterlimit: 2; fill: rgb(0,0,0); fill-opacity: 0.5; fill-rule: evenodd; opacity: 1;" vector-effect="non-scaling-stroke"  transform=" translate(-84.5, -70.55)" d="M 17.017 92.905 C 21.18 66.409 50.147 46.506 84.5 46.506 C 118.85300000000001 46.506 147.82 66.40899999999999 151.982 92.905 C 151.91658322589478 93.46605292790443 151.84056965514708 94.02581953003336 151.754 94.584 C 139.49599999999998 79.727 113.96499999999999 69.506 84.49999999999999 69.506 C 55.03499999999998 69.506 29.503999999999984 79.727 17.24599999999998 94.584 C 17.162999999999982 94.024 17.07999999999998 93.46600000000001 17.01799999999998 92.904 Z" stroke-linecap="round" />
</g>
<g transform="matrix(0.83 0 0 0.83 428.44 103.65)" style="" id="1723527b-96fc-426c-b07e-4284ab3aefbc"  >
		<text xml:space="preserve" font-family="Raleway" font-size="105" font-style="normal" font-weight="900" style="stroke: none; stroke-width: 1; stroke-dasharray: none; stroke-linecap: butt; stroke-dashoffset: 0; stroke-linejoin: miter; stroke-miterlimit: 4; fill: rgb(0,0,0); fill-rule: nonzero; opacity: 1; white-space: pre;" ><tspan x="-257.25" y="32.98" >Promptify</tspan></text>
</g>
</svg>