<?xml version="1.0" standalone="no"?>
<!DOCTYPE svg PUBLIC "-//W3C//DTD SVG 20010904//EN"
 "http://www.w3.org/TR/2001/REC-SVG-20010904/DTD/svg10.dtd">
<svg version="1.0" xmlns="http://www.w3.org/2000/svg"
 width="362.000000pt" height="362.000000pt" viewBox="0 0 362.000000 362.000000"
 preserveAspectRatio="xMidYMid meet">
<metadata>
Created by potrace 1.16, written by Peter Selinger 2001-2019
</metadata>
<g transform="translate(0.000000,362.000000) scale(0.100000,-0.100000)"
fill="#000000" stroke="none">
<path d="M1527 3605 c-673 -110 -1224 -575 -1437 -1212 -73 -220 -85 -304 -85
-588 1 -222 3 -262 23 -355 143 -660 598 -1168 1225 -1369 203 -65 278 -75
547 -76 274 0 357 12 570 81 581 190 1036 679 1184 1272 41 164 50 247 50 452
0 205 -9 288 -50 452 -42 167 -103 317 -189 463 -265 451 -700 762 -1211 866
-140 28 -489 36 -627 14z m498 -166 c329 -42 656 -199 905 -436 351 -334 537
-783 517 -1253 -11 -250 -62 -446 -174 -670 -237 -474 -674 -800 -1191 -891
-149 -26 -404 -28 -537 -4 -365 65 -662 219 -915 475 -232 235 -394 551 -451
878 -28 161 -27 384 1 546 88 513 421 961 886 1194 300 150 620 204 959 161z"/>
<path d="M1575 3255 c-573 -94 -1037 -514 -1181 -1073 -14 -56 -24 -107 -22
-113 2 -7 21 12 42 42 286 400 816 649 1382 649 567 0 1081 -233 1376 -624
l61 -81 -6 50 c-8 72 -62 235 -113 341 -63 133 -154 263 -263 376 -204 213
-436 345 -731 415 -135 32 -404 41 -545 18z"/>
<path d="M1587 2619 c-599 -69 -1091 -431 -1208 -886 -19 -75 -25 -143 -13
-143 4 0 44 36 90 79 398 377 1148 540 1845 401 359 -72 651 -210 855 -404 84
-81 99 -82 88 -11 -20 129 -102 311 -194 430 -178 230 -486 417 -819 496 -185
45 -454 61 -644 38z"/>
<path d="M1550 1980 c-485 -53 -914 -250 -1095 -505 -25 -34 -45 -72 -45 -84
0 -17 55 -176 65 -189 1 -1 49 20 106 47 208 98 485 170 799 208 177 21 636
24 805 5 350 -40 639 -114 848 -218 49 -24 90 -44 93 -44 5 0 28 55 54 134
l23 66 -35 53 c-165 247 -544 440 -1004 513 -119 18 -492 27 -614 14z"/>
<path d="M1514 1340 c-258 -22 -487 -65 -684 -130 -141 -46 -280 -114 -280
-136 0 -43 206 -304 240 -304 10 0 90 9 177 20 540 67 1184 65 1727 -7 l129
-17 61 65 c63 66 176 225 176 246 0 15 -156 91 -260 126 -165 56 -342 95 -570
123 -138 17 -575 26 -716 14z"/>
<path d="M1490 703 c-274 -12 -560 -41 -560 -57 0 -28 226 -156 370 -209 176
-65 279 -82 500 -82 218 0 288 11 469 71 165 55 428 201 405 224 -12 12 -273
38 -504 50 -177 9 -515 11 -680 3z"/>
</g>
</svg>
